<svg version="1.2" xmlns="http://www.w3.org/2000/svg" viewBox="0 0 1024 1024" width="1024" height="1024">
	<title>SherlockIcon</title>
	<style>
		.s0 { fill: #F2E8D0 } 
		.s1 { fill: #3C2F2F } 
	</style>
	<g id="Background">
		<path id="Path 1" class="s0" d="m601.6 88.2c-0.2 0.7-0.9 3.3-1.6 5.8-0.7 2.5-2.1 5.8-3.2 7.5-1.2 1.7-3.2 4-4.7 5.2l-2.6 2.2c4.1 4.3 5.4 6.8 5.6 8.3 0.2 1.5 0.3 2.8 0.1 2.8-0.1 0-1.6-1.1-3.2-2.5-1.6-1.4-3.6-2.5-4.3-2.5-0.6 0-2.1 0.6-3.2 1.4-2 1.4-2 1.4 0.1 6.3l2.2 4.8c-9.6 19.4-12.7 25.7-12.9 26.5-0.5 1.2-2.9 0.7-14.5-3.2-7.6-2.6-17.3-5.4-21.4-6.2-4.1-0.8-11.3-2-16-2.5-4.7-0.6-13-1.1-18.5-1.1-5.5 0-15 0.5-21 1.1-6.1 0.6-17.1 2.4-24.5 3.9-7.4 1.6-14.6 3.2-16 3.5-1.9 0.5-1.7 0.2 1-1.4 1.9-1.1 8.6-4.1 14.7-6.8 6.2-2.6 11.3-5.1 11.3-5.6 0-0.4-2.1-2.8-4.8-5.3-2.6-2.6-6.3-5.4-8.2-6.4-1.9-1-5.5-2.3-8-3-2.5-0.6-6.4-0.9-8.8-0.6-2.8 0.4-5.4 1.7-7.8 3.8-2 1.8-4.3 4.6-5.2 6.3-0.8 1.7-2.1 5-2.8 7.5-1.2 4.2-1.3 3.6-1.1-8.5 0.1-8.5-0.3-13.8-1.1-15.3-0.7-1.2-2.6-2.9-4.2-3.7-1.7-0.8-5-1.5-7.5-1.5-2.5 0-5.7 0.6-7.3 1.4-1.5 0.7-3.3 2.5-4 4-0.6 1.4-1.2 3.8-1.2 5.3 0 1.6 0.9 4.6 2 6.8 1 2.2 3.4 6.2 5.3 9 2 2.7 3.5 5.1 3.4 5.2-0.1 0.1-2.9-1.1-6.2-2.8-3.7-1.8-7.5-2.9-10-2.9-2.2 0-5 0.7-6.3 1.5-1.2 0.8-3.1 3.2-4.1 5.2-1 2.1-2.4 6.5-3 9.8-0.6 3.5-0.8 8.3-0.3 11.4 0.4 2.9 0.9 5.4 1.2 5.6 0.3 0.1 4.3-0.1 9-0.6 4.7-0.4 11.6-1.1 15.5-1.4l7-0.7c-14.7 11.3-23.5 19.1-29 24.6-5.5 5.6-13 14.4-16.7 19.6-3.7 5.2-9.9 15.6-13.7 23-3.7 7.4-8.7 19.1-10.9 26-2.2 6.9-5.2 18.1-6.6 25-1.4 6.9-3 16.9-3.5 22.2-0.6 5.4-1.1 14.1-1.1 19.3 0 9.3 0 9.5 2.2 9 1.3-0.2 8.4-1.1 15.8-1.9 7.4-0.8 17.5-1.7 22.5-2 4.9-0.3 16.6-0.1 26 0.4 9.3 0.5 21.5 1.6 27 2.5 5.5 0.8 10.1 1.6 10.2 1.8 0.1 0.1-11.2 0.3-25 0.3-16.5 0.1-29.9 0.7-38.7 1.8-7.4 0.9-19.6 2.7-27 4.1-7.4 1.4-15.5 3.1-18 3.9l-4.5 1.4 8.5 0.2 0.1 14.5c-16 14-32.5 28.4-47 41-14.5 12.7-27.5 24-29 25.1l-2.6 2.1c8.5 3.2 14.1 5 18 6.1 3.9 1.2 9.9 2.7 13.5 3.5 3.6 0.8 11.2 2.3 17 3.3 8.5 1.6 15.6 1.9 37.5 1.9 23.8 0 28.5-0.3 40-2.4 7.1-1.2 17.3-3.4 22.5-4.7 5.2-1.4 13.8-3.9 19-5.6 5.2-1.7 14-4.9 19.5-7 5.5-2.2 15.9-6.8 23-10.2 7.1-3.5 21.1-10.8 31-16.3 9.9-5.6 27-15.3 38-21.8 11-6.4 24-13.6 29-16 5-2.4 12.6-5.3 17-6.5 5.8-1.5 11.1-2 19.2-2 6.2 0 11.3 0.1 11.3 0.2 0 0.2-1 2.8-2.2 5.8-1.5 4.1-2.2 8.5-2.6 17-0.4 9.5-0.1 13 1.7 20 1.1 4.7 3.8 12.1 6 16.5 2.5 5.1 6.3 10.6 10.4 15 3.5 3.9 8.6 8.2 11.3 9.7 2.7 1.4 7.6 3.4 10.9 4.3q6 1.8 12 1.3c3.6-0.3 8-1.5 11-3 3-1.5 6.1-4.1 7.6-6.4 1.5-2.2 3.2-4.8 3.8-5.9 1-1.9 1-1.9 1.1 0.5 0 1.4-0.5 4.3-1.1 6.5-0.7 2.6-2.9 5.7-6.2 9.1-3.4 3.2-7 5.6-10.2 6.7-3 1.1-7.9 1.7-12.5 1.7-4.6 0-9.4-0.8-12.5-1.9-2.8-1-5.7-2.1-6.5-2.4-1.2-0.6-1.1 0.6 0.7 6.1 1.2 3.7 2.6 10.8 3.2 15.7 0.7 5.9 0.8 11.6 0.2 16.5-0.5 4.1-1.9 9.9-3 12.7-1.2 2.9-1.6 5.3-1.1 5.3 0.5 0 2.8-1.7 5.1-3.8 2.2-2 5.4-6.4 7-9.7 1.6-3.3 3.6-9.1 4.4-13 0.8-3.9 1.5-8.6 1.5-10.5 0-3.5 0-3.5 6.7-5.3 3.8-1 8.8-3 11.3-4.4 2.5-1.5 6.7-4.7 9.4-7.2 2.7-2.5 6.1-6.9 7.6-9.6l2.8-5c3.4 9.3 4.8 15.8 5.4 20.5 0.5 4.7 0.8 11 0.5 14l-0.6 5.5c3-6.2 4.3-10.7 5-14 0.8-4.1 0.9-12.5 0.5-26.3-0.3-11.1-0.3-20.2 0.1-20.2 0.5-0.1 2 2.5 3.5 5.7 1.5 3.2 3.5 8.7 4.4 12.3 1.3 5.2 1.5 9.3 1.1 20.5-0.4 10.1-1.2 16.8-3 24-1.4 5.5-3.8 13.4-5.3 17.5-1.4 4.1-4.5 11.1-6.7 15.5-2.2 4.4-5.6 10.5-7.7 13.5-2 3-6.6 8.2-10.1 11.5-3.5 3.3-9.1 7.3-12.4 8.9-3.9 1.9-8.4 3.1-12.8 3.5-3.7 0.3-6.7 0.8-6.7 1.1 0 0.3 1.1 1.2 2.3 2.1 1.2 0.9 4.4 2.4 7.2 3.4 3.6 1.2 6.4 1.5 10 1 2.7-0.3 7-1.5 9.5-2.6 2.5-1.1 6-3.1 7.7-4.5l3.3-2.4c-0.4 21.1-0.2 23.1 1.8 27.2 1.6 3.6 2.9 5 4.9 5.4 1.6 0.3 3.9 0.1 5.3-0.5 1.4-0.6 3.1-2.2 3.7-3.6 0.7-1.4 1.3-3.4 1.3-4.5 0-1.1-1.6-5.8-3.5-10.5q-3.5-8.5-3.5-13.3c0-2.6 0.2-5.7 0.5-7 0.4-2 1.1-2.2 6.2-2.2 4 0 7.3-0.8 10.8-2.4 2.7-1.3 7.6-5 10.7-8.2 3.1-3.3 7.3-8.6 9.3-11.9 2-3.3 4.7-9.5 6-13.8 1.4-4.2 2.5-9.3 2.5-11.2 0-1.9 0.7-4.2 1.6-5 0.8-0.8 2.1-1.5 2.7-1.5 0.7 0 2.2-1 3.3-2.2 1.2-1.3 2.9-3.8 3.8-5.6 0.9-1.7 2.1-5.6 2.6-8.5 0.7-3.6 0.7-7.2 0-11.7-0.5-3.6-2.4-9.4-4.1-13-2.2-4.6-5.2-8.6-10.5-13.8-5.6-5.5-9.5-8.2-16.2-11.5l-8.8-4.2c3.6-5.4 5.1-9.3 5.7-12 0.7-3.3 0.7-6.8 0-10.5-0.5-3-0.9-5.6-0.8-5.8 0.1-0.1 1.4 1.7 2.8 4 1.5 2.4 4.3 5.8 6.3 7.5 2 1.8 5.5 3.8 7.8 4.4 2.5 0.6 6.6 0.8 9.8 0.4 3-0.4 8.4-1.6 12-2.7 3.6-1.1 10.9-4.3 16.3-7.1 5.4-2.9 9.8-5.4 9.7-5.7 0-0.3-1.9-2.4-4.2-4.6-2.4-2.3-7.9-7.1-12.3-10.6-4.4-3.5-12-9.1-17-12.4-5-3.3-14.6-9.2-21.5-13.1-6.9-3.9-15.9-8.8-20-11l-7.4-3.8c-5.1-20.9-8.6-33.6-11.1-41.8-2.5-8.1-6.3-19.3-8.6-25-2.2-5.6-6.5-14.9-9.6-20.7-3-5.8-7.6-13.7-10.1-17.5-2.6-3.9-7.9-10.8-11.8-15.5-3.9-4.7-11.1-12.3-16-16.9-4.9-4.6-12.6-11.1-17.2-14.5-4.5-3.4-11.6-7.9-15.7-10.1l-7.5-4c8.1-13.7 11.6-18.8 12.9-20.1 2.1-2.1 3.3-2.4 10.7-2.4 4.6 0 9.3-0.4 10.4-1 1.1-0.6 2-2 2-3.3 0-1.2-1-3.2-2.2-4.4-1.3-1.3-3.7-2.7-5.3-3.2-1.7-0.5-4.7-0.6-7-0.1-2.2 0.5-4.1 0.7-4.3 0.4-0.1-0.2 1.6-1.3 3.8-2.4 2.2-1.1 5.5-2 7.2-2 1.8 0 4.6 0.7 6.3 1.5 1.6 0.9 3 1.5 3 1.5 0 0-0.2-1.9-0.4-4.3-0.2-2.3 0.2-5.8 0.8-7.7 0.6-1.9 2.6-5.4 4.6-7.8 3.4-4.1 3.4-4.3 1.7-6.3-0.9-1.2-3.7-3.3-6.2-4.7-3.6-2-4.8-2.3-6.3-1.4-1.3 0.9-1.7 0.9-1.7-0.1 0-0.6-1-2.2-2.2-3.4-1.3-1.2-3.9-2.5-5.8-2.8-1.9-0.4-4.5-0.8-5.7-1.1-1.3-0.3-2.5 0.1-2.7 0.8zm-369.5 377.6c-0.1 1.7 0.4 4.2 1 5.4 0.7 1.3 4.9 5.9 9.4 10.3 6.6 6.3 8.5 8.9 9.4 12.2 0.8 3.1 0.8 5.5 0 8.5-0.6 2.4-2.4 6.1-3.8 8.3-1.5 2.2-7.5 7.9-13.2 12.6-5.7 4.8-12.2 10.6-14.3 13-2.2 2.4-4.9 6.4-6 8.9-1.3 2.9-2 6.6-2 10.5 0 4.2 0.6 7.2 2.1 10 1.2 2.2 4.5 6.3 7.5 9.1 2.9 2.8 9.1 7.8 13.8 11 4.7 3.2 10.5 7.4 12.9 9.4 2.5 1.9 5.7 5.5 7.3 8 2.1 3.3 2.8 5.7 2.8 9.2 0 2.7-0.6 6.3-1.3 8-0.8 1.8-2.9 5.1-4.8 7.2-1.9 2.2-8.4 7.2-14.4 11.1-6.1 4-12.6 8.9-14.6 11.1-2.2 2.4-4 5.8-4.8 8.9-0.9 3.7-1 6.1-0.2 9 0.6 2.2 1.8 4.9 2.6 6l1.7 2c-1-3.1-1.5-4.9-1.8-6-0.3-1.1 0-4 0.7-6.5q1.2-4.5 6-9.5c2.6-2.8 7.4-6.5 10.6-8.4 3.2-1.9 9.2-5.5 13.3-8 4.1-2.5 9.4-6.4 11.8-8.6 2.4-2.2 5.3-6 6.4-8.5 1.2-2.5 2.1-6.5 2.1-9 0-3-0.8-6-2.5-9-1.4-2.5-4.3-5.9-6.4-7.6-2.1-1.7-8.8-5.9-14.8-9.5-6-3.5-13.1-8.4-15.9-10.9-2.7-2.5-5.8-6.2-6.8-8.3-1.2-2.3-1.9-5.9-1.9-9.5 0-4.4 0.7-7.1 3.2-12.2 2.5-5 5.9-9.2 15.4-18.5 6.7-6.6 13-13.6 14-15.5 1.1-2.1 1.8-5.6 1.8-9 0-4.1-0.7-6.7-2.7-10.3-1.8-3.1-5.6-6.9-11-11.2-4.5-3.5-8.8-7.5-9.6-8.7-0.8-1.3-1.8-3.7-2.2-5.3l-0.7-3zm219.4 97.7c-1.6 0.7-7.9 4.3-14 8-6 3.6-13.2 7.5-16 8.5-2.7 1-7.2 2.2-10 2.6-3.3 0.4-4.5 0.9-3.5 1.4 0.8 0.5 3.5 1.1 6 1.4 2.5 0.4 7 0.2 10-0.4 3-0.6 8.2-2.3 11.5-4 3.3-1.6 8.5-5 11.5-7.5 3-2.6 6.9-5.5 8.5-6.5 1.7-1.1 4.1-2 5.5-2h2.5c-3.9-2.2-5.9-2.9-7-2.9-1.1 0-3.3 0.6-5 1.4zm250.5 26.3c-11.8 10.9-32.1 30.3-45 43.3-12.9 12.9-30.5 31.1-39 40.5-8.5 9.3-19.3 21.5-24.1 27-4.7 5.5-14.8 17.8-22.5 27.4-7.7 9.7-18.1 22.9-23 29.5-5 6.7-13.3 18.1-18.6 25.5-5.2 7.5-14.7 21.4-21 31-6.4 9.7-16.4 25.7-22.3 35.5-5.9 9.9-15.2 26.2-20.8 36-5.5 9.9-12.9 23.9-16.4 31-3.4 7.2-6.3 13.4-6.3 13.8 0 0.4 1.2 0 2.8-1 1.5-0.9 10.1-6.5 19.2-12.3 9.1-5.9 28.9-18.1 44-27.1 15.1-9.1 32.9-19.6 39.5-23.3 6.6-3.8 23-12.9 36.5-20.3 13.5-7.3 43.6-22.9 67-34.6 23.4-11.7 54.9-27 70-34.1 15.1-7 37.4-17.8 49.5-24 12.1-6.2 26.2-13.5 31.3-16.4l9.2-5.1c-11.4-15.2-18.7-25.6-23.7-33-5-7.5-13.6-21.2-19.3-30.6-5.6-9.3-13.5-23.7-17.5-31.9-4-8.3-9.8-21.3-12.8-29.1-3-7.7-7.2-19.2-9.3-25.7-2.2-6.5-4.3-11.8-4.9-11.7-0.5 0-10.7 8.9-22.5 19.7zm-273.8 33.3l0.3 5.5c27.6-0.1 36.4-0.7 43.5-1.9 5.8-1 15.5-3.1 21.5-4.7 6.1-1.6 12-3.2 13.2-3.6 1.2-0.5-16-0.8-38.3-0.8h-40.5zm-22.2 1.9c-3 0.4-7.3 1.3-9.5 2-2.2 0.7-6.9 2.8-10.5 4.7-3.6 1.8-9.8 6.2-13.9 9.6-4.1 3.4-11.5 10.8-16.4 16.3-5 5.5-10.9 12.5-13.3 15.7l-4.4 5.8c15.9 11 20.8 13.8 21.1 13.3 0.4-0.5 4.8-7.6 9.9-15.8 5.1-8.3 11.8-18.4 14.8-22.5 3.1-4.2 8.3-10.3 11.6-13.6 3.5-3.4 8.7-7.3 12.1-8.9 4.6-2.3 7.5-3 12.3-3 3.4 0 6.2-0.4 6.2-0.8 0-0.4-1.5-1.2-3.2-1.7-1.8-0.5-5.1-1.1-7.3-1.3-2.2-0.3-6.5-0.1-9.5 0.2zm188.5 36.1c-7.7 8.3-21.7 22.6-31 31.8-9.4 9.2-19.5 18.1-22.5 19.9-3 1.8-8.2 4.3-11.5 5.7-3.3 1.3-9.6 3.2-14 4.1-5.7 1.3-12.3 1.8-23 1.7-12.1 0-16.5-0.4-23-2.1-4.4-1.2-11.4-3.8-15.5-5.8-4.1-1.9-8.8-4.5-10.5-5.7l-3-2.1c5.4 6.8 8.8 10.3 11 12.2 2.2 1.9 6.9 4.9 10.5 6.7 3.6 1.8 9 4.1 12 4.9 3 0.9 8 1.7 11 1.6h5.5c1 9 2.5 14.3 3.9 17.6 1.5 3.2 2.6 6.1 2.6 6.2 0 0.1-2.1-1.1-4.7-2.7-2.7-1.5-6.8-3.5-9.3-4.4-2.5-0.8-7.4-2-11-2.6-3.6-0.6-8.2-1-10.2-1-2.1 0-4 0.3-4.2 0.7-0.3 0.4 0.1 4.1 0.9 8.3 0.8 4.1 1.9 14.7 2.5 23.5 0.6 8.7 1.5 21.6 1.9 28.5 0.6 8.5 1.5 13.9 2.8 17 1.1 2.4 3.4 5.5 5.1 6.7 1.8 1.2 3.5 2.3 4 2.3 0.4 0 4.1-5.3 8.1-11.8 4.1-6.4 13.3-20.5 20.5-31.2 7.1-10.8 18.4-27 25-36 6.6-9.1 21.9-29.8 34-46 12-16.3 27.2-36.5 33.6-45 6.4-8.6 11.9-16.1 12.3-16.8 0.3-0.7 0.5-1.2 0.4-1.2-0.1 0-6.5 6.7-14.2 15zm-341.5 12.1c-2.5 0.4-6.7 1.6-9.5 2.5-2.7 0.9-7.2 2.7-10 4.1-2.7 1.4-6.2 3.7-7.8 5.1-1.5 1.5-2.7 3.7-2.7 4.9 0 1.2 1 2.9 2.3 3.8 1.5 1 4.7 1.5 9.7 1.5 4.3 0 10.9-0.9 15.5-2.1 4.4-1.1 11.1-3.7 14.9-5.7 3.8-2.1 8-5 9.3-6.5 1.3-1.5 2.3-3.4 2.3-4.2 0-0.9-1-2.2-2.2-3.1-1.6-1-4.6-1.4-9.8-1.3-4.1 0-9.5 0.5-12 1zm30 6.4c0 0.8-1.5 3.1-3.2 5.1-1.8 1.9-5.5 4.8-8.3 6.4-2.7 1.5-9.3 4.3-14.5 6-7.4 2.5-11.7 3.3-19.5 3.7-7.5 0.3-11.1 0.1-14.5-1.1l-4.5-1.6c1.2 10.4 2.7 17.7 4.1 23 1.4 5.2 3.9 12.6 5.5 16.5 1.6 3.8 4.8 10.1 7.1 14 2.3 3.8 7.1 9.9 10.7 13.6 4.4 4.4 8.7 7.6 12.6 9.4 4.1 1.9 8.3 3 13 3.3 3.9 0.2 9.9-0.1 13.5-0.8 3.6-0.7 8.8-2.2 11.5-3.3 2.8-1.2 7.3-3.5 10-5.3 2.8-1.7 7.5-5.4 10.5-8.1 3-2.8 7.8-8.4 10.7-12.5 2.8-4 10.3-16.8 16.8-28.3 6.4-11.6 11.4-21.5 11.2-22-0.2-0.6-4.9-4.2-10.5-8-5.6-3.9-10.3-6.8-10.5-6.5-0.2 0.2-5 6.7-10.7 14.5-5.7 7.7-14.6 19.3-19.9 26l-9.6 12c-1-28.1-1.8-36.2-2.9-40-0.9-3.3-2.9-8.7-4.4-11.8-1.5-3.2-3-5.8-3.4-5.8-0.5 0-0.8 0.7-0.8 1.6z"/>
		<path id="Path 2" class="s1" d="m578.5 295.6c-2.8 0.2-9.5 0.9-15 1.5-5.5 0.5-15.2 2.2-21.5 3.6-6.3 1.3-17.4 4.4-24.5 6.8-7.1 2.3-18.9 6.8-26 10-7.1 3.2-17.5 8-23 10.7-5.5 2.8-17.2 9.2-26 14.3-8.8 5.1-27.5 15.5-41.5 23.2-14 7.7-28.2 15.4-31.5 17.1-3.3 1.7-5.7 3.1-5.3 3.2 0.5 0 5.6-0.9 11.6-2.1 5.9-1.1 18.6-4.7 28.2-7.9 9.6-3.2 26.5-9.8 37.5-14.8 11-4.9 28.3-12.8 38.5-17.5 10.2-4.6 23.9-10.6 30.5-13.2 6.6-2.6 19.2-7.1 28-10 8.8-2.9 21.6-6.5 28.5-7.9 6.9-1.4 16.5-3.1 21.5-3.8 5-0.7 17.6-1.3 28.5-1.2 15.8 0 21.6 0.4 30.5 2.2 6 1.2 14.8 3.2 19.5 4.6 4.7 1.4 9.4 2.7 10.5 3.1 1.1 0.3-0.9-0.9-4.5-2.8-3.6-1.9-10-4.9-14.3-6.6-4.2-1.7-13.7-4.7-20.9-6.6-7.3-1.9-17.1-3.9-21.8-4.4-4.7-0.6-13.9-1.2-20.5-1.4-6.6-0.3-14.3-0.3-17-0.1zm29.5 23.6c-3 0.5-10.9 2.4-17.5 4.3-6.6 1.9-15.4 4.8-19.5 6.5-4.1 1.7-13.4 6.2-20.5 9.9-7.1 3.7-27.2 15.2-44.5 25.6-17.3 10.3-38 22.5-46 27-8 4.5-19 10.5-24.5 13.2-5.5 2.7-13.5 6.5-17.7 8.4-4.3 1.9-7.6 3.5-7.5 3.7 0.1 0.1 4.5-1.3 9.7-3.2 5.2-1.9 14.7-5.6 21-8.4 6.3-2.7 16.7-7.5 23-10.7 6.3-3.2 18.9-9.9 28-15 9.1-5.1 26-15 37.5-22 11.5-6.9 28-16.1 36.5-20.4 8.5-4.3 20-9.5 25.5-11.6 5.5-2.1 14-4.8 19-6.1 5-1.3 7.6-2.3 6-2.2-1.6 0-5.5 0.4-8.5 1z"/>
	</g>
</svg>